<svg version="1.1" xmlns="http://www.w3.org/2000/svg" viewBox="0 0 426.3817124765892 413.72197153748675" width="852.7634249531784" height="827.4439430749735">
  <!-- svg-source:excalidraw -->
  
  <defs>
    <style class="style-fonts">
      
    </style>
    
  </defs>
  <rect x="0" y="0" width="426.3817124765892" height="413.72197153748675" fill="#ffffff"></rect><g transform="translate(157.66585307435685 392.6068050613112) rotate(0 105.62502575104975 -191.3034025306556)" stroke="none"><path fill="#1e1e1e" d="M -3.30,0 Q -3.30,0 -3.21,-4.23 -3.12,-8.46 -3.05,-15.15 -2.98,-21.83 -2.93,-32.55 -2.89,-43.28 -2.85,-55.72 -2.81,-68.17 -2.79,-75.63 -2.76,-83.09 -2.74,-94.44 -2.72,-105.80 -2.71,-113.99 -2.69,-122.18 -2.97,-127.70 -3.25,-133.21 -3.53,-136.65 -3.81,-140.08 -5.00,-143.01 -6.19,-145.94 -7.40,-148.78 -8.61,-151.62 -9.01,-154.45 -9.41,-157.29 -9.65,-160.09 -9.88,-162.89 -9.96,-166.92 -10.03,-170.94 -10.04,-173.25 -10.05,-175.55 -9.77,-178.22 -9.49,-180.89 -9.39,-183.09 -9.29,-185.30 -9.33,-188.22 -9.37,-191.14 -9.46,-193.75 -9.54,-196.36 -9.61,-199.16 -9.68,-201.97 -9.63,-204.35 -9.59,-206.73 -9.82,-212.13 -10.05,-217.53 -10.26,-220.38 -10.48,-223.22 -10.61,-226.06 -10.74,-228.89 -10.76,-231.83 -10.77,-234.78 -10.75,-237.74 -10.72,-240.70 -10.52,-244.50 -10.32,-248.30 -10.07,-252.41 -9.83,-256.51 -9.60,-261.18 -9.37,-265.86 -9.20,-270.33 -9.02,-274.81 -9.04,-278.43 -9.06,-282.04 -9.04,-285.82 -9.03,-289.60 -9.20,-291.96 -9.37,-294.32 -10.05,-297.86 -10.72,-301.39 -11.39,-304.57 -12.06,-307.75 -12.34,-310.97 -12.61,-314.19 -12.70,-318.42 -12.78,-322.65 -12.75,-325.42 -12.72,-328.18 -12.94,-330.80 -13.17,-333.43 -13.30,-336.18 -13.44,-338.92 -13.54,-341.14 -13.64,-343.35 -14.13,-346.01 -14.62,-348.67 -15.42,-350.64 -16.21,-352.62 -15.64,-354.99 -15.07,-357.35 -13.12,-359.01 -11.16,-360.66 -8.78,-361.16 -6.39,-361.66 -2.29,-362.55 1.79,-363.44 5.48,-364.14 9.18,-364.83 13.76,-365.54 18.35,-366.24 24.84,-367.70 31.33,-369.15 37.56,-370.38 43.80,-371.60 49.46,-372.41 55.12,-373.22 60.45,-373.85 65.79,-374.48 70.63,-374.72 75.48,-374.96 79.64,-375.07 83.79,-375.17 87.66,-375.27 91.52,-375.37 95.14,-375.72 98.76,-376.08 102.51,-376.27 106.27,-376.45 109.42,-376.90 112.56,-377.34 115.76,-377.60 118.95,-377.86 122.03,-378.02 125.10,-378.19 128.11,-378.29 131.13,-378.40 133.45,-378.55 135.77,-378.69 138.13,-378.80 140.49,-378.91 144.96,-379.09 149.43,-379.27 153.42,-379.43 157.41,-379.60 161.09,-379.73 164.77,-379.86 169.06,-380.32 173.35,-380.77 175.83,-381.06 178.31,-381.34 180.71,-381.75 183.10,-382.15 185.49,-382.62 187.87,-383.08 191.77,-383.86 195.66,-384.64 198.51,-385.25 201.36,-385.86 204.06,-386.25 206.76,-386.64 209.19,-386.92 211.63,-387.21 214.06,-387.34 216.49,-387.48 218.73,-388.32 220.97,-389.16 222.04,-389.15 223.12,-389.14 224.13,-388.78 225.14,-388.43 225.99,-387.77 226.84,-387.11 227.43,-386.22 228.02,-385.33 228.30,-384.29 228.58,-383.25 228.51,-382.18 228.44,-381.11 228.03,-380.12 227.63,-379.12 226.92,-378.31 226.22,-377.50 225.29,-376.96 224.37,-376.41 223.32,-376.19 222.27,-375.97 221.20,-376.10 220.14,-376.23 219.17,-376.69 218.20,-377.15 217.43,-377.90 216.65,-378.64 216.16,-379.59 215.67,-380.55 215.51,-381.61 215.34,-382.67 215.53,-383.73 215.71,-384.78 216.22,-385.73 216.74,-386.67 217.52,-387.40 218.31,-388.13 219.29,-388.57 220.27,-389.01 221.34,-389.12 222.40,-389.22 223.45,-388.98 224.50,-388.74 225.41,-388.18 226.32,-387.61 227.01,-386.79 227.70,-385.96 228.08,-384.96 228.47,-383.96 228.52,-382.89 228.56,-381.82 228.27,-380.79 227.97,-379.75 227.36,-378.87 226.75,-377.99 225.88,-377.35 225.02,-376.71 224.00,-376.38 222.98,-376.04 222.98,-376.04 222.98,-376.05 222.65,-375.87 222.31,-375.70 218.88,-375.15 215.44,-374.59 213.05,-374.64 210.65,-374.69 207.80,-374.39 204.95,-374.08 202.77,-374.04 200.60,-374.01 197.44,-373.57 194.29,-373.13 192.13,-372.69 189.97,-372.24 187.47,-371.76 184.97,-371.27 182.34,-370.81 179.71,-370.35 174.76,-369.87 169.82,-369.39 167.30,-369.11 164.78,-368.83 161.10,-368.96 157.41,-369.10 153.42,-369.26 149.44,-369.42 144.97,-369.59 140.51,-369.76 138.16,-369.87 135.81,-369.97 133.51,-370.09 131.20,-370.21 128.23,-370.27 125.26,-370.32 122.28,-370.36 119.31,-370.39 116.30,-370.37 113.30,-370.34 109.90,-370.09 106.51,-369.84 102.90,-369.76 99.29,-369.68 95.46,-369.41 91.62,-369.15 87.80,-369.13 83.99,-369.11 79.94,-368.96 75.89,-368.80 71.29,-368.41 66.69,-368.02 61.49,-367.18 56.29,-366.33 50.90,-365.26 45.52,-364.18 39.52,-362.58 33.53,-360.97 27.04,-358.93 20.56,-356.90 16.26,-355.51 11.97,-354.12 8.53,-352.95 5.08,-351.78 2.23,-350.91 -0.61,-350.05 -2.28,-351.44 -3.95,-352.83 -3.59,-350.26 -3.24,-347.69 -3.01,-343.56 -2.78,-339.43 -2.66,-336.96 -2.55,-334.49 -2.20,-331.34 -1.85,-328.19 -1.81,-325.43 -1.77,-322.67 -1.77,-320.23 -1.77,-317.78 -1.90,-314.49 -2.02,-311.19 -2.07,-308.60 -2.13,-306.02 -1.95,-302.50 -1.78,-298.97 -1.65,-296.65 -1.53,-294.33 -1.71,-291.96 -1.88,-289.60 -1.86,-285.82 -1.84,-282.05 -1.86,-278.43 -1.88,-274.81 -1.71,-270.33 -1.53,-265.86 -1.30,-261.19 -1.07,-256.52 -0.81,-252.43 -0.56,-248.33 -0.33,-244.56 -0.11,-240.79 -0.03,-237.90 0.04,-235.01 0.15,-232.25 0.25,-229.49 0.41,-226.97 0.57,-224.46 1.03,-221.22 1.50,-217.99 1.74,-215.11 1.99,-212.24 2.33,-209.49 2.68,-206.74 2.73,-204.35 2.77,-201.96 2.69,-199.14 2.62,-196.32 2.51,-193.63 2.41,-190.95 2.23,-187.86 2.06,-184.77 1.69,-180.16 1.33,-175.54 1.33,-173.24 1.32,-170.94 1.30,-168.78 1.27,-166.61 1.15,-163.64 1.02,-160.68 0.80,-158.27 0.58,-155.85 0.64,-153.10 0.70,-150.35 1.33,-147.74 1.95,-145.14 2.06,-142.72 2.17,-140.30 2.13,-136.90 2.09,-133.49 2.39,-127.84 2.69,-122.18 2.71,-113.99 2.72,-105.80 2.74,-94.44 2.76,-83.09 2.79,-75.63 2.81,-68.17 2.85,-55.72 2.89,-43.28 2.93,-32.55 2.98,-21.83 3.05,-15.15 3.12,-8.46 3.21,-4.23 3.30,0 3.25,0.39 3.20,0.79 3.06,1.16 2.92,1.53 2.69,1.86 2.47,2.18 2.17,2.45 1.87,2.71 1.52,2.90 1.17,3.08 0.78,3.18 0.39,3.27 -0.00,3.27 -0.39,3.27 -0.78,3.18 -1.17,3.08 -1.52,2.90 -1.87,2.71 -2.17,2.45 -2.47,2.18 -2.69,1.86 -2.92,1.53 -3.06,1.16 -3.20,0.78 -3.25,0.39 -3.30,-0.00 -3.30,-0.00 L -3.30,0 Z"></path></g><g transform="translate(10 403.72197153748675) rotate(0 131.77289789015947 -13.39885045708229)" stroke="none"><path fill="#1e1e1e" d="M 0,-3.73 Q 0,-3.73 3.52,-3.75 7.05,-3.77 12.32,-3.61 17.60,-3.46 22.32,-3.34 27.05,-3.23 31.54,-3.15 36.03,-3.07 39.18,-3.22 42.33,-3.37 46.91,-3.55 51.49,-3.74 55.23,-3.91 58.97,-4.09 62.54,-4.46 66.10,-4.84 69.45,-5.09 72.79,-5.35 75.93,-5.51 79.06,-5.68 81.92,-6.08 84.78,-6.47 87.54,-6.73 90.30,-6.99 93.40,-7.34 96.51,-7.69 99.71,-7.89 102.91,-8.09 105.78,-8.46 108.65,-8.84 112.14,-9.22 115.64,-9.59 118.27,-9.89 120.90,-10.19 123.17,-10.62 125.44,-11.06 127.68,-11.34 129.93,-11.62 133.69,-12.27 137.45,-12.92 141.09,-13.52 144.72,-14.12 147.00,-14.22 149.28,-14.32 153.49,-14.42 157.71,-14.52 160.03,-14.53 162.34,-14.54 164.70,-14.54 167.06,-14.54 169.44,-14.54 171.81,-14.54 174.20,-14.53 176.58,-14.53 181.40,-14.50 186.21,-14.48 188.43,-14.50 190.64,-14.52 194.10,-14.61 197.55,-14.70 199.94,-14.99 202.33,-15.28 205.41,-15.55 208.49,-15.82 210.98,-16.12 213.47,-16.42 217.40,-16.65 221.32,-16.87 225.63,-17.25 229.95,-17.62 233.80,-18.07 237.66,-18.52 240.59,-18.98 243.51,-19.44 246.05,-19.60 248.59,-19.76 251.01,-19.86 253.42,-19.96 255.70,-20.36 257.98,-20.76 256.11,-19.39 254.24,-18.03 255.25,-21.12 256.25,-24.21 256.68,-26.16 257.11,-28.12 257.49,-29.11 257.87,-30.10 258.55,-30.92 259.22,-31.74 260.13,-32.30 261.03,-32.86 262.06,-33.10 263.10,-33.34 264.15,-33.24 265.21,-33.14 266.18,-32.71 267.15,-32.27 267.93,-31.55 268.71,-30.83 269.22,-29.90 269.73,-28.97 269.92,-27.93 270.10,-26.88 269.94,-25.83 269.79,-24.78 269.30,-23.84 268.82,-22.89 268.06,-22.15 267.30,-21.41 266.34,-20.95 265.38,-20.49 264.33,-20.36 263.27,-20.24 262.23,-20.45 261.19,-20.66 260.28,-21.20 259.36,-21.73 258.66,-22.53 257.96,-23.33 257.56,-24.31 257.15,-25.30 257.08,-26.35 257.01,-27.41 257.28,-28.44 257.55,-29.47 258.13,-30.35 258.72,-31.24 259.55,-31.89 260.39,-32.55 261.39,-32.90 262.39,-33.25 263.45,-33.27 264.52,-33.28 265.53,-32.96 266.54,-32.63 267.39,-32.00 268.24,-31.37 268.85,-30.50 269.46,-29.63 269.76,-28.61 270.05,-27.59 270.01,-26.53 269.97,-25.47 269.97,-25.47 269.97,-25.47 269.59,-23.51 269.22,-21.54 267.90,-16.76 266.59,-11.97 264.92,-10.55 263.26,-9.14 259.93,-7.90 256.61,-6.66 254.44,-6.71 252.27,-6.76 249.63,-6.82 246.98,-6.88 244.84,-6.80 242.71,-6.73 239.00,-6.31 235.30,-5.89 230.98,-5.39 226.66,-4.89 224.17,-4.53 221.68,-4.16 218.63,-4.06 215.58,-3.96 212.23,-3.68 208.89,-3.40 206.63,-3.38 204.36,-3.36 200.96,-3.17 197.55,-2.99 194.10,-3.08 190.64,-3.17 188.43,-3.19 186.21,-3.21 181.40,-3.18 176.58,-3.16 174.20,-3.15 171.82,-3.15 169.44,-3.15 167.07,-3.15 164.72,-3.14 162.37,-3.14 160.06,-3.14 157.76,-3.14 153.67,-3.17 149.58,-3.20 146.01,-3.15 142.43,-3.09 138.71,-2.78 134.98,-2.48 130.90,-2.18 126.82,-1.88 124.19,-1.58 121.56,-1.28 119.13,-1.21 116.70,-1.14 113.18,-0.64 109.66,-0.14 106.49,0.17 103.32,0.50 100.36,0.60 97.41,0.69 94.06,1.03 90.72,1.37 88.16,1.38 85.60,1.39 82.41,1.62 79.22,1.85 76.16,1.81 73.11,1.76 69.91,1.80 66.72,1.83 62.96,2.14 59.19,2.44 55.54,2.51 51.88,2.58 47.11,2.97 42.34,3.37 39.18,3.22 36.03,3.07 31.54,3.15 27.05,3.23 22.32,3.34 17.60,3.46 12.32,3.61 7.05,3.77 3.52,3.75 0,3.73 -0.44,3.68 -0.89,3.62 -1.31,3.46 -1.73,3.30 -2.10,3.05 -2.47,2.79 -2.77,2.45 -3.07,2.12 -3.28,1.72 -3.49,1.32 -3.60,0.88 -3.70,0.45 -3.70,-0.00 -3.70,-0.45 -3.60,-0.88 -3.49,-1.32 -3.28,-1.72 -3.07,-2.12 -2.77,-2.46 -2.47,-2.79 -2.10,-3.05 -1.73,-3.30 -1.31,-3.46 -0.89,-3.62 -0.44,-3.68 0.00,-3.73 0.00,-3.73 L 0,-3.73 Z"></path></g><g transform="translate(385.4524285498777 15.646080788707138) rotate(0 2.876521367212206 30.060984133203107)" stroke="none"><path fill="#1e1e1e" d="M 0,5.20 Q 0,5.20 -1.02,5.29 -2.04,5.37 -3.59,7.27 -5.13,9.17 -6.59,10.84 -8.05,12.52 -9.81,14.64 -11.57,16.75 -12.78,18.54 -13.99,20.32 -15.15,22.38 -16.31,24.44 -17.12,27.04 -17.94,29.65 -17.98,32.35 -18.02,35.05 -18.00,37.65 -17.98,40.25 -17.95,42.41 -17.93,44.58 -17.15,46.82 -16.37,49.06 -14.38,49.96 -12.39,50.85 -9.85,51.21 -7.30,51.56 -4.90,51.90 -2.49,52.23 -0.11,52.44 2.27,52.65 4.84,52.68 7.41,52.71 9.62,52.70 11.83,52.70 14.09,51.99 16.35,51.27 18.08,48.90 19.81,46.52 21.02,44.66 22.24,42.80 22.78,40.58 23.32,38.36 23.30,36.11 23.29,33.87 22.92,31.65 22.54,29.43 21.90,27.10 21.26,24.77 19.85,22.86 18.45,20.96 16.11,18.95 13.77,16.94 11.65,16.25 9.52,15.57 7.11,14.80 4.69,14.03 2.57,13.47 0.44,12.90 -0.51,12.70 -1.48,12.49 -2.32,12.10 -3.17,11.71 -3.89,11.13 -4.62,10.56 -5.19,9.82 -5.75,9.08 -6.13,8.23 -6.50,7.38 -6.66,6.47 -6.82,5.55 -6.76,4.63 -6.69,3.70 -6.41,2.82 -6.12,1.93 -5.64,1.14 -5.15,0.35 -4.49,-0.29 -3.83,-0.94 -3.03,-1.41 -2.23,-1.89 -1.34,-2.15 -0.45,-2.42 0.47,-2.47 1.39,-2.52 2.30,-2.34 3.22,-2.17 -2.03,-0.47 -7.29,1.22 -7.30,0.03 -7.30,-1.16 -6.92,-2.30 -6.55,-3.43 -5.83,-4.39 -5.11,-5.35 -4.12,-6.02 -3.13,-6.70 -1.98,-7.02 -0.82,-7.35 0.36,-7.29 1.56,-7.23 2.67,-6.79 3.78,-6.35 4.70,-5.58 5.61,-4.81 6.24,-3.78 6.86,-2.76 7.12,-1.59 7.38,-0.43 7.26,0.76 7.13,1.95 6.63,3.03 6.14,4.12 5.32,5.00 4.50,5.87 3.44,6.43 2.39,7.00 1.20,7.20 0.02,7.39 -1.15,7.20 -2.33,7.02 -3.39,6.46 -4.45,5.90 -5.28,5.04 -6.10,4.17 -6.61,3.09 -7.12,2.00 -7.25,0.81 -7.38,-0.37 -7.13,-1.54 -6.88,-2.71 -6.27,-3.73 -5.65,-4.76 -4.74,-5.54 -3.83,-6.32 -2.72,-6.77 -1.61,-7.21 -0.42,-7.28 0.77,-7.35 1.92,-7.04 3.08,-6.72 4.07,-6.05 5.06,-5.39 5.79,-4.44 6.52,-3.49 6.91,-2.35 7.29,-1.22 7.29,-1.22 7.29,-1.22 2.90,5.63 -1.48,12.49 -2.32,12.10 -3.17,11.71 -3.89,11.13 -4.62,10.56 -5.19,9.82 -5.75,9.08 -6.13,8.23 -6.50,7.38 -6.66,6.47 -6.82,5.56 -6.76,4.63 -6.69,3.70 -6.41,2.82 -6.12,1.93 -5.64,1.14 -5.15,0.35 -4.49,-0.29 -3.83,-0.94 -3.03,-1.41 -2.23,-1.89 -1.34,-2.15 -0.45,-2.42 0.46,-2.47 1.39,-2.52 2.30,-2.35 3.22,-2.17 2.60,-2.28 1.98,-2.40 4.64,-1.62 7.29,-0.85 9.41,-0.29 11.54,0.27 13.76,0.78 15.99,1.29 18.61,2.35 21.23,3.42 23.32,5.18 25.42,6.95 27.22,8.42 29.02,9.90 30.79,11.72 32.55,13.53 33.62,15.53 34.69,17.54 35.62,19.86 36.55,22.18 37.06,24.27 37.56,26.36 38.06,29.08 38.56,31.81 38.55,33.97 38.54,36.13 38.48,38.66 38.42,41.20 37.84,43.91 37.26,46.62 35.80,49.23 34.33,51.85 32.67,54.17 31.00,56.50 29.71,58.28 28.43,60.06 26.25,62.07 24.07,64.08 21.92,65.11 19.77,66.13 17.67,66.71 15.57,67.29 12.29,67.40 9.01,67.52 6.19,67.50 3.38,67.49 0.57,67.28 -2.23,67.08 -5.26,66.74 -8.30,66.39 -11.51,65.98 -14.71,65.57 -16.82,65.23 -18.93,64.88 -21.72,63.51 -24.51,62.13 -26.17,60.40 -27.83,58.67 -28.88,56.81 -29.92,54.94 -30.86,52.44 -31.80,49.94 -32.11,47.26 -32.42,44.58 -32.39,42.41 -32.37,40.24 -32.34,37.64 -32.32,35.03 -32.25,32.54 -32.17,30.05 -31.56,27.33 -30.95,24.62 -30.08,22.28 -29.21,19.94 -28.10,18.04 -27.00,16.13 -25.46,13.93 -23.92,11.73 -22.44,9.92 -20.96,8.11 -19.11,6.23 -17.25,4.35 -15.40,2.53 -13.54,0.71 -11.74,-0.91 -9.93,-2.54 -5.99,-3.95 -2.04,-5.37 -1.02,-5.29 0,-5.20 0.62,-5.13 1.24,-5.05 1.83,-4.83 2.42,-4.61 2.93,-4.25 3.45,-3.89 3.87,-3.42 4.28,-2.95 4.57,-2.40 4.87,-1.84 5.02,-1.23 5.17,-0.62 5.17,0.00 5.17,0.62 5.02,1.23 4.87,1.84 4.57,2.40 4.28,2.95 3.87,3.42 3.45,3.89 2.93,4.25 2.42,4.61 1.83,4.83 1.24,5.05 0.62,5.13 -0.00,5.20 -0.00,5.20 L 0,5.20 Z"></path></g><g transform="translate(385.9466915092594 76.9480462103939) rotate(0 -3.9852734112304233 54.513642164233346)" stroke="none"><path fill="#1e1e1e" d="M 4.96,0 Q 4.96,0 4.92,3.13 4.88,6.26 4.73,9.96 4.58,13.66 4.61,16.52 4.65,19.37 4.69,22.14 4.73,24.92 4.75,27.75 4.78,30.58 4.96,34.47 5.15,38.35 5.32,41.26 5.48,44.17 5.62,46.98 5.75,49.80 5.67,53.17 5.59,56.55 5.48,59.45 5.37,62.35 5.27,64.63 5.17,66.92 4.93,69.10 4.69,71.27 4.44,73.82 4.19,76.37 3.89,78.93 3.58,81.48 3.30,84.22 3.02,86.96 2.53,89.70 2.04,92.45 1.32,94.84 0.61,97.23 0.27,99.75 -0.06,102.28 -0.36,105.72 -0.67,109.15 -0.88,110.32 -1.09,111.48 -1.66,112.51 -2.24,113.54 -3.11,114.34 -3.98,115.14 -5.06,115.61 -6.14,116.09 -7.32,116.19 -8.49,116.30 -9.64,116.03 -10.79,115.75 -11.79,115.12 -12.79,114.50 -13.54,113.58 -14.29,112.67 -14.70,111.57 -15.12,110.46 -15.16,109.28 -15.21,108.10 -14.87,106.97 -14.53,105.84 -13.85,104.87 -13.17,103.91 -12.22,103.21 -11.27,102.51 -10.14,102.16 -9.02,101.80 -7.83,101.82 -6.65,101.84 -5.54,102.24 -4.43,102.64 -3.50,103.37 -2.58,104.10 -1.93,105.09 -1.29,106.08 -0.99,107.22 -0.70,108.37 -0.78,109.54 -0.87,110.72 -1.33,111.81 -1.78,112.90 -2.56,113.78 -3.34,114.67 -4.37,115.26 -5.39,115.85 -6.55,116.08 -7.70,116.32 -8.88,116.17 -10.05,116.02 -11.11,115.50 -12.17,114.99 -13.01,114.16 -13.86,113.33 -14.39,112.28 -14.92,111.23 -15.09,110.06 -15.26,108.89 -15.26,108.89 -15.26,108.89 -14.86,105.30 -14.47,101.72 -13.94,98.72 -13.41,95.73 -12.85,93.41 -12.29,91.09 -11.55,88.53 -10.81,85.98 -10.46,83.80 -10.11,81.63 -9.66,78.95 -9.21,76.27 -8.77,73.53 -8.32,70.78 -7.84,68.54 -7.36,66.30 -7.10,64.05 -6.83,61.80 -6.56,58.98 -6.28,56.16 -6.02,52.98 -5.75,49.80 -5.62,46.98 -5.48,44.17 -5.32,41.26 -5.15,38.35 -4.96,34.47 -4.78,30.58 -4.75,27.75 -4.73,24.92 -4.69,22.14 -4.65,19.37 -4.61,16.52 -4.58,13.66 -4.73,9.96 -4.88,6.26 -4.92,3.13 -4.96,0 -4.89,-0.59 -4.82,-1.18 -4.61,-1.74 -4.39,-2.30 -4.05,-2.80 -3.71,-3.29 -3.26,-3.69 -2.82,-4.08 -2.29,-4.36 -1.76,-4.64 -1.17,-4.78 -0.59,-4.93 0.00,-4.93 0.59,-4.93 1.18,-4.78 1.76,-4.64 2.29,-4.36 2.82,-4.08 3.27,-3.69 3.71,-3.29 4.05,-2.80 4.39,-2.30 4.61,-1.74 4.82,-1.18 4.89,-0.59 4.96,0.00 4.96,0.00 L 4.96,0 Z"></path></g></svg>